<svg width="241" height="54" viewBox="0 0 241 54" fill="none" xmlns="http://www.w3.org/2000/svg">
<path d="M65.8 37.2C65.5 36.7 65.3 36.1 65.1 35.4C64.9 34.7 64.8 33.9 64.6 33.1C64.5 32.3 64.4 31.5 64.3 30.8C64.2 30.1 64.1 29.5 64.1 29.1V24.2C64.1 24 64.2 23.8 64.4 23.6C64.6 23.4 64.8 23.3 65 23.3H65.1H65.2C65.3 23.8 65.3 24.3 65.4 24.9C65.4 25.4 65.5 26 65.5 26.5C65.5 27 65.6 27.6 65.7 28.1C65.8 28.6 65.9 29.1 66.1 29.6C66.4 29.7 66.7 29.7 67.1 29.8C67.4 29.8 67.8 29.8 68.3 29.9C68.8 29.9 69.3 29.8 69.9 29.7C70.5 29.5 71 29.3 71.5 29C72 28.7 72.4 28.3 72.7 27.9C73 27.4 73.2 27 73.2 26.4C73.2 25.8 73 25.3 72.6 24.8C72.2 24.3 71.7 23.9 71.1 23.6C70.5 23.3 69.8 22.9 69 22.7C68.2 22.4 67.5 22.2 66.8 22.1C66.1 21.9 65.4 21.8 64.8 21.8C64.2 21.7 63.7 21.7 63.3 21.7C63.2 21.7 63 21.7 62.7 21.7C62.4 21.7 62.1 21.7 61.7 21.7C61.3 21.7 61 21.7 60.6 21.8C60.3 21.8 60 21.9 59.8 22C59.6 22.1 59.5 22.3 59.3 22.5C59.2 22.7 59 23 58.9 23.2C58.8 23.5 58.6 23.7 58.5 23.9C58.4 24.1 58.2 24.2 58 24.2H57.9L57.8 24.1C57.8 24.1 57.8 24 57.7 23.8C57.7 23.6 57.6 23.4 57.6 23.1C57.6 22.8 57.6 22.4 57.6 21.9C57.6 21.7 57.7 21.5 57.9 21.3C58.1 21.1 58.4 21 58.7 20.8C59 20.7 59.4 20.6 59.8 20.5C60.2 20.4 60.5 20.3 60.9 20.2C61.2 20.1 61.6 20.1 61.8 20C62.1 20 62.3 19.9 62.4 19.9C63 19.9 63.8 19.9 64.7 20C65.6 20.1 66.5 20.2 67.4 20.4C68.3 20.6 69.2 20.9 70.1 21.2C71 21.5 71.8 21.9 72.5 22.4C73.2 22.9 73.8 23.5 74.2 24.1C74.6 24.8 74.9 25.6 74.9 26.5C75 27.1 74.9 27.7 74.6 28.3C74.3 28.8 73.8 29.3 73.3 29.8C72.7 30.2 72.1 30.6 71.4 30.9C70.7 31.2 70 31.5 69.4 31.6C68.7 31.8 68.1 31.9 67.6 31.9C67.1 32 66.7 31.9 66.5 31.8V32.1C66.5 32.8 66.6 33.4 66.7 34.1C66.8 34.7 66.9 35.4 66.9 36.1C66.9 36.2 66.9 36.3 66.9 36.4C66.9 36.6 66.8 36.7 66.8 36.9C66.7 37.1 66.6 37.2 66.5 37.3C66.1 37.2 66 37.3 65.8 37.2Z" fill="white"/>
<path d="M78.5 37.2C78.1 36.4 77.7 35.6 77.4 34.7C77.1 33.8 76.8 32.9 76.6 32C76.4 31.1 76.2 30.2 76.1 29.4C76 28.5 75.9 27.8 75.9 27.1C75.9 27 75.9 26.8 75.9 26.7C75.9 26.5 75.9 26.4 75.9 26.2C75.9 26 75.9 25.9 76 25.7C76.1 25.5 76.1 25.4 76.2 25.3H76.3C76.3 25.3 76.3 25.3 76.4 25.3H76.5C76.5 25.3 76.6 25.4 76.8 25.4C77 25.5 77 25.5 77.1 25.5C77.4 25.4 77.8 25.2 78.2 25.1C78.6 24.9 78.9 24.8 79.3 24.6C79.7 24.5 80 24.3 80.4 24.3C80.8 24.2 81.1 24.2 81.5 24.2C81.8 24.2 82 24.2 82.2 24.2C82.4 24.2 82.6 24.3 82.8 24.3C83 24.4 83.2 24.4 83.4 24.5C83.6 24.6 83.9 24.6 84.2 24.7C84.4 24.8 84.5 24.9 84.6 25C84.7 25.1 84.8 25.2 84.9 25.3C85 25.4 85.1 25.6 85.1 25.8C85.2 26 85.2 26.2 85.2 26.5C84.9 26.5 84.5 26.5 84.1 26.4C83.7 26.3 83.3 26.2 82.8 26.1C82.3 26 81.9 25.9 81.4 25.8C80.9 25.7 80.5 25.7 80 25.7C79.6 25.7 79.1 25.8 78.8 26.1C78.4 26.3 78.1 26.6 77.7 27.1C77.6 27.7 77.5 28.2 77.5 28.7C77.5 29.2 77.6 29.7 77.7 30.2C77.8 30.7 78 31.2 78.1 31.7C78.3 32.2 78.4 32.7 78.6 33.2C78.8 33.7 78.9 34.2 79 34.7C79.1 35.2 79.2 35.7 79.3 36.2C79.3 36.4 79.2 36.6 79 36.8C79 37.1 78.8 37.2 78.5 37.2Z" fill="white"/>
<path d="M85.8 20.3C85.8 20.1 85.9 19.9 86 19.9C86.1 19.8 86.3 19.8 86.5 19.8C86.6 19.8 86.8 19.9 87 20C87.2 20.2 87.4 20.4 87.5 20.6C87.6 20.8 87.7 21 87.7 21.2C87.7 21.4 87.6 21.6 87.3 21.6H87.2C86.9 21.6 86.7 21.6 86.5 21.5C86.3 21.5 86.2 21.4 86.1 21.3C86 21.2 85.9 21.1 85.9 20.9C85.8 20.8 85.8 20.6 85.8 20.3ZM87.3 27.4C87.3 27.3 87.3 27.2 87.3 27C87.3 26.8 87.3 26.6 87.3 26.3C87.3 26.1 87.3 25.8 87.3 25.6C87.3 25.4 87.3 25.3 87.3 25.2C87.2 24.6 87.4 24.3 87.8 24.3C88 24.3 88.1 24.4 88.3 24.4C88.4 24.5 88.6 24.6 88.7 24.8C88.6 25.8 88.7 26.7 88.8 27.7C88.9 28.6 89.1 29.5 89.3 30.4C89.5 31.3 89.6 32.2 89.8 33.1C90 34 90 35 90 35.9C90 36.2 89.9 36.4 89.8 36.7C89.6 37 89.4 37.1 89.1 37.1C88.9 37.1 88.6 36.9 88.5 36.5C88.3 36.1 88.2 35.5 88 34.9C87.9 34.2 87.8 33.5 87.7 32.7C87.6 31.9 87.5 31.1 87.5 30.4C87.4 29.7 87.4 29 87.4 28.4C87.3 28 87.3 27.6 87.3 27.4Z" fill="white"/>
<path d="M109.7 36.2C109.7 36.1 109.7 36.1 109.7 36C109.7 35.9 109.7 35.8 109.7 35.7C109.7 35.6 109.7 35.5 109.7 35.4V35.2C109.7 35.1 109.7 35 109.7 34.7C109.7 34.4 109.8 34.1 109.8 33.9C109.8 33.6 109.9 33.3 109.9 33C109.9 32.7 109.9 32.5 109.9 32.5C109.9 32.1 109.8 31.6 109.6 30.9C109.4 30.2 109.3 29.6 109 29C108.7 28.4 108.4 27.8 108 27.4C107.6 26.9 107.1 26.7 106.5 26.7C106 26.7 105.5 26.8 104.9 27.1C104.3 27.4 103.8 27.7 103.3 28.1C102.8 28.5 102.4 29 102.1 29.5C101.8 30 101.6 30.6 101.6 31.1C101.6 31.4 101.7 31.7 101.7 31.9C101.8 32.2 101.9 32.4 102 32.7C102.1 33 102.2 33.2 102.3 33.5C102.4 33.8 102.4 34.1 102.4 34.4C102.4 34.6 102.4 34.9 102.3 35.1C102.2 35.3 102 35.4 101.7 35.4C101.4 35.4 101.1 35.2 100.9 34.8C100.7 34.4 100.5 33.9 100.3 33.3C100.1 32.7 99.9 32 99.7 31.3C99.5 30.6 99.2 29.9 99 29.3C98.7 28.7 98.3 28.2 97.9 27.8C97.5 27.4 96.9 27.2 96.3 27.2C95.8 27.2 95.3 27.3 94.9 27.5C94.5 27.7 94.2 28 93.9 28.4C93.6 28.8 93.4 29.2 93.3 29.6C93.2 30.1 93.1 30.5 93.1 31C93.1 31.8 93.2 32.5 93.3 33.2C93.4 33.9 93.5 34.7 93.5 35.4C93.5 35.7 93.5 35.9 93.4 36.1C93.3 36.3 93.2 36.4 92.8 36.4C92.6 36.4 92.4 36.3 92.3 36.2C92.2 36.1 92 36 92 35.8C91.9 35.6 91.8 35.5 91.8 35.3C91.7 35.1 91.7 34.9 91.7 34.8C91.7 34 91.7 33.3 91.7 32.6C91.7 31.9 91.6 31.3 91.6 30.7C91.5 30.1 91.5 29.5 91.5 28.9C91.4 28.3 91.4 27.7 91.4 27C91.4 27 91.4 26.9 91.4 26.8C91.4 26.7 91.4 26.6 91.4 26.5C91.4 26.4 91.4 26.3 91.4 26.2C91.4 26.1 91.4 26.1 91.4 26L91.5 25.9C91.6 25.8 91.6 25.8 91.6 25.8H91.7C92 25.8 92.3 25.9 92.4 26.1C92.6 26.3 92.6 26.5 92.6 26.8C92.9 26.5 93.2 26.2 93.4 26C93.6 25.8 93.9 25.7 94.1 25.6C94.3 25.5 94.6 25.4 94.8 25.4C95 25.4 95.3 25.4 95.7 25.4C96.3 25.4 96.7 25.5 97.2 25.6C97.7 25.7 98.1 25.9 98.4 26.1C98.8 26.3 99.1 26.6 99.4 27C99.7 27.3 100 27.7 100.3 28.2C100.3 28.2 100.3 28.2 100.4 28.2H100.5C100.5 28.2 100.6 28.1 100.8 27.9C101 27.7 101.2 27.5 101.5 27.2C101.8 26.9 102.1 26.7 102.5 26.4C102.9 26.1 103.3 25.8 103.7 25.5C104.1 25.2 104.5 25 105 24.8C105.4 24.6 105.9 24.5 106.3 24.5C106.9 24.5 107.5 24.6 108 24.9C108.5 25.2 109 25.5 109.4 26C109.8 26.5 110.1 27 110.4 27.5C110.7 28.1 110.9 28.6 111.1 29.2C111.3 29.8 111.4 30.4 111.5 31C111.6 31.6 111.6 32.1 111.6 32.6C111.6 32.8 111.6 33.1 111.6 33.6C111.6 34.1 111.5 34.5 111.5 35C111.4 35.5 111.3 35.9 111.1 36.3C110.9 36.7 110.6 36.9 110.3 36.9C110.1 36.9 110 36.9 109.9 36.8C109.8 36.7 109.8 36.6 109.7 36.6C109.7 36.5 109.6 36.4 109.6 36.3C109.7 36.5 109.7 36.4 109.7 36.2Z" fill="white"/>
<path d="M113 32.4C113 32.1 113.1 31.7 113.3 31.3C113.5 30.9 113.7 30.5 114.1 30.1C114.5 29.7 114.9 29.4 115.5 29C116.1 28.7 116.7 28.5 117.4 28.3C118.1 28.2 119 28.2 120 28.3C121 28.4 122 28.7 123.2 29.1C123.2 29.1 123.2 29 123.2 28.8V28.5C123.2 28 123.1 27.5 122.8 27C122.5 26.5 122.2 26 121.7 25.6C121.2 25.2 120.8 24.9 120.3 24.6C119.8 24.3 119.3 24.2 118.8 24.2C118.6 24.2 118.5 24.2 118.3 24.3C118.2 24.4 118 24.4 117.9 24.5C117.8 24.6 117.6 24.7 117.5 24.7C117.4 24.8 117.2 24.8 117.1 24.8H117C117 24.8 117 24.8 116.9 24.7C116.9 24.7 116.8 24.6 116.7 24.6C116.6 24.5 116.6 24.5 116.6 24.5C116.6 24.2 116.7 23.9 116.8 23.6C116.9 23.4 117.1 23.1 117.3 23C117.5 22.8 117.8 22.7 118 22.6C118.3 22.5 118.6 22.5 118.9 22.5C119.7 22.6 120.4 22.8 121.1 23.2C121.8 23.6 122.4 24.1 123 24.7C123.6 25.3 124.1 26 124.5 26.7C124.9 27.5 125.3 28.3 125.6 29.1C125.9 29.9 126.1 30.7 126.2 31.6C126.3 32.5 126.3 33.3 126.2 34C126.2 34 126.1 34 126 34C125.9 34 125.8 34 125.7 34C125.6 34 125.5 34 125.4 34H125.3C124.9 33.1 124.5 32.4 124 31.8C123.5 31.2 123 30.8 122.5 30.5C122 30.2 121.6 30 121.1 29.8C120.7 29.7 120.3 29.6 120.1 29.5C119.8 29.5 119.5 29.5 119.1 29.6C118.7 29.6 118.3 29.7 117.9 29.8C117.5 29.9 117.1 30 116.6 30.2C116.2 30.4 115.8 30.6 115.5 30.8C115.2 31 114.9 31.3 114.7 31.6C114.5 31.9 114.4 32.3 114.4 32.7C114.4 33.2 114.6 33.5 114.9 33.8C115.3 34.1 115.7 34.4 116.2 34.6C116.7 34.8 117.2 34.9 117.8 35C118.3 35.1 118.8 35.1 119.1 35.1C119.6 35.1 120.2 35.1 120.7 35C121.2 34.9 121.7 34.9 122.2 34.8C122.7 34.7 123.2 34.7 123.7 34.6C124.2 34.5 124.7 34.5 125.2 34.5C125.2 34.5 125.3 34.5 125.4 34.5C125.5 34.5 125.6 34.5 125.7 34.5C125.8 34.5 125.9 34.5 126 34.5C126.1 34.5 126.1 34.5 126.2 34.5C126.4 34.6 126.4 34.6 126.5 34.8C126.5 34.9 126.5 35 126.5 35.1C126.5 35.2 126.4 35.3 126.2 35.5C126 35.6 125.6 35.8 125.3 35.9C124.9 36 124.5 36.2 124 36.3C123.5 36.4 123.1 36.6 122.7 36.6C122.3 36.7 121.9 36.8 121.5 36.8C121.1 36.9 120.9 36.9 120.7 36.9C119.9 36.9 119.1 36.8 118.2 36.7C117.3 36.6 116.5 36.3 115.8 36C115.1 35.7 114.4 35.2 114 34.5C113.2 34.2 113 33.4 113 32.4Z" fill="white"/>
<path d="M128.6 36.4C128.6 36.4 128.6 36.3 128.6 36.1C128.6 35.9 128.7 35.8 128.7 35.6C128.7 35.4 128.8 35.2 128.8 35.1C128.8 34.9 128.8 34.8 128.8 34.8C128.8 34.8 128.8 34.7 128.8 34.5C128.8 34.3 128.8 34.2 128.8 33.9C128.8 33.7 128.8 33.5 128.8 33.2C128.8 33 128.8 32.8 128.8 32.7C128.8 32.6 128.8 32.4 128.8 32.2C128.8 32 128.8 31.8 128.8 31.6C128.8 31.4 128.8 31.2 128.8 31.1C128.8 31 128.8 30.9 128.8 30.9C128.7 30 128.6 29.1 128.5 28.1C128.3 27.1 128.2 26.2 128 25.2C127.8 24.2 127.7 23.3 127.5 22.4C127.3 21.5 127.2 20.6 127.1 19.8C127.3 19.3 127.5 19.2 127.7 19.3C127.9 19.4 128.1 19.8 128.3 20.3C128.5 20.8 128.7 21.5 128.9 22.3C129.1 23.1 129.3 23.9 129.5 24.7C129.7 25.5 129.8 26.3 129.9 27C130 27.7 130.1 28.3 130.2 28.7C130.2 28.7 130.3 28.8 130.4 28.8C130.5 28.8 130.6 28.8 130.6 28.8C131 28.8 131.3 28.7 131.6 28.5C131.9 28.3 132.2 28 132.4 27.6C132.7 27.3 132.9 26.9 133.1 26.5C133.3 26.1 133.6 25.7 133.9 25.4C134.2 25.1 134.5 24.8 134.8 24.5C135.1 24.3 135.5 24.2 135.9 24.2C136.2 24.2 136.3 24.3 136.4 24.4C136.5 24.6 136.5 24.7 136.5 25C136.2 25.2 135.9 25.5 135.6 25.8C135.3 26.1 134.9 26.5 134.5 26.9C134.1 27.3 133.7 27.7 133.3 28.1C132.9 28.5 132.6 29 132.3 29.4C132 29.8 131.8 30.2 131.6 30.6C131.4 31 131.3 31.3 131.3 31.6C131.3 32 131.4 32.4 131.7 32.7C132 33 132.3 33.4 132.8 33.6C133.2 33.9 133.7 34.1 134.2 34.3C134.7 34.5 135.3 34.7 135.8 34.8C136.3 34.9 136.8 35.1 137.3 35.1C137.8 35.2 138.1 35.2 138.4 35.2C138.6 35.2 138.7 35.3 138.7 35.5C138.7 35.7 138.7 35.8 138.7 35.9C138.7 36.2 138.6 36.4 138.4 36.5C138.2 36.6 138 36.7 137.7 36.8C137.4 36.9 137.2 36.9 136.9 36.9C136.6 36.9 136.4 36.9 136.2 36.9C135.8 36.9 135.3 36.8 134.8 36.5C134.3 36.2 133.7 35.9 133.2 35.6C132.7 35.3 132.3 35 131.9 34.7C131.5 34.4 131.3 34.3 131.1 34.3C130.8 34.3 130.6 34.5 130.5 34.7C130.4 35 130.3 35.3 130.3 35.7C130.3 36 130.2 36.4 130.1 36.7C130 37 129.8 37.1 129.5 37.1C129.3 37.1 129 37 128.8 36.9C128.7 36.9 128.6 36.7 128.6 36.4Z" fill="white"/>
<path d="M139.5 32.4C139.5 32.1 139.6 31.7 139.8 31.3C140 30.9 140.2 30.5 140.6 30.1C141 29.7 141.4 29.4 142 29C142.6 28.7 143.2 28.5 143.9 28.3C144.6 28.2 145.5 28.2 146.5 28.3C147.5 28.4 148.5 28.7 149.7 29.1C149.7 29.1 149.7 29 149.7 28.8V28.5C149.7 28 149.6 27.5 149.3 27C149 26.5 148.7 26 148.2 25.6C147.7 25.2 147.3 24.9 146.8 24.6C146.3 24.3 145.8 24.2 145.3 24.2C145.1 24.2 145 24.2 144.8 24.3C144.7 24.4 144.5 24.4 144.4 24.5C144.3 24.6 144.1 24.7 144 24.7C143.9 24.8 143.7 24.8 143.6 24.8H143.5C143.5 24.8 143.5 24.8 143.4 24.7C143.4 24.7 143.3 24.6 143.2 24.6C143.1 24.5 143.1 24.5 143.1 24.5C143.1 24.2 143.2 23.9 143.3 23.6C143.4 23.4 143.6 23.1 143.8 23C144 22.8 144.3 22.7 144.5 22.6C144.8 22.5 145.1 22.5 145.4 22.5C146.2 22.6 146.9 22.8 147.6 23.2C148.3 23.6 148.9 24.1 149.5 24.7C150.1 25.3 150.6 26 151 26.7C151.4 27.5 151.8 28.3 152.1 29.1C152.4 29.9 152.6 30.7 152.7 31.6C152.8 32.5 152.8 33.3 152.7 34C152.7 34 152.6 34 152.5 34C152.4 34 152.3 34 152.2 34C152.1 34 152 34 151.9 34H151.8C151.4 33.1 151 32.4 150.5 31.8C150 31.2 149.5 30.8 149 30.5C148.5 30.2 148.1 30 147.6 29.8C147.2 29.7 146.8 29.6 146.6 29.5C146.3 29.5 146 29.5 145.6 29.6C145.2 29.6 144.8 29.7 144.4 29.8C144 29.9 143.6 30 143.1 30.2C142.7 30.4 142.3 30.6 142 30.8C141.7 31 141.4 31.3 141.2 31.6C141 31.9 140.9 32.3 140.9 32.7C140.9 33.2 141.1 33.5 141.4 33.8C141.8 34.1 142.2 34.4 142.7 34.6C143.2 34.8 143.7 34.9 144.3 35C144.8 35.1 145.3 35.1 145.6 35.1C146.1 35.1 146.7 35.1 147.2 35C147.7 34.9 148.2 34.9 148.7 34.8C149.2 34.7 149.7 34.7 150.2 34.6C150.7 34.5 151.2 34.5 151.7 34.5C151.7 34.5 151.8 34.5 151.9 34.5C152 34.5 152.1 34.5 152.2 34.5C152.3 34.5 152.4 34.5 152.5 34.5C152.6 34.5 152.7 34.5 152.7 34.5C152.9 34.6 152.9 34.6 153 34.8C153 34.9 153 35 153 35.1C153 35.2 152.9 35.3 152.7 35.5C152.5 35.6 152.2 35.8 151.8 35.9C151.4 36 151 36.2 150.5 36.3C150 36.4 149.6 36.6 149.2 36.6C148.8 36.7 148.4 36.8 148 36.8C147.6 36.9 147.4 36.9 147.2 36.9C146.4 36.9 145.6 36.8 144.7 36.7C143.8 36.6 143 36.3 142.3 36C141.6 35.7 140.9 35.2 140.5 34.5C139.7 34.2 139.5 33.4 139.5 32.4Z" fill="white"/>
<path d="M166.5 27.4C166.5 27.3 166.5 27.2 166.5 27C166.5 26.8 166.5 26.6 166.5 26.3C166.5 26.1 166.5 25.8 166.5 25.6C166.5 25.4 166.5 25.3 166.5 25.2C166.4 24.6 166.6 24.3 167 24.3C167.2 24.3 167.3 24.4 167.5 24.4C167.6 24.5 167.8 24.6 167.9 24.8C167.8 25.8 167.9 26.7 168 27.7C168.1 28.6 168.3 29.5 168.5 30.4C168.7 31.3 168.8 32.2 169 33.1C169.2 34 169.2 35 169.2 35.9C169.2 36.2 169.1 36.4 169 36.7C168.8 37 168.6 37.1 168.3 37.1C168.1 37.1 167.8 36.9 167.7 36.5C167.5 36.1 167.4 35.5 167.2 34.9C167.1 34.2 167 33.5 166.9 32.7C166.8 31.9 166.7 31.1 166.7 30.4C166.6 29.7 166.6 29 166.6 28.4C166.5 28 166.5 27.6 166.5 27.4Z" fill="white"/>
<path d="M170.3 30.9C170.3 30.1 170.5 29.3 170.8 28.5C171.1 27.7 171.6 27 172.1 26.4C172.7 25.8 173.3 25.3 174 24.9C174.7 24.5 175.5 24.4 176.4 24.4C176.8 24.4 177.2 24.4 177.6 24.5C178 24.6 178.4 24.7 178.8 24.9C179.2 25.1 179.5 25.3 179.7 25.6C179.9 25.9 180.1 26.3 180.1 26.8C180.1 26.9 180.1 27 180 27.3C179.9 27.5 179.9 27.8 179.8 28C179.7 28.2 179.6 28.4 179.5 28.6C179.4 28.8 179.3 28.9 179.2 28.9C179.2 28 179 27.3 178.5 26.7C178 26.1 177.3 25.8 176.3 25.8C175.6 25.8 174.9 26 174.4 26.3C173.8 26.6 173.4 27 173 27.5C172.6 28 172.3 28.5 172.1 29.2C171.9 29.8 171.8 30.4 171.8 31.1C171.8 32 171.9 32.7 172.2 33.3C172.5 33.9 172.9 34.3 173.4 34.7C173.9 35 174.5 35.3 175.1 35.5C175.7 35.7 176.4 35.8 177.1 35.8C177.8 35.9 178.5 35.9 179.3 35.9C180 35.9 180.7 35.8 181.4 35.8C181.5 35.8 181.6 35.8 181.7 35.9C181.8 36 181.9 36 182 36V36.1V36.2C182 36.4 181.9 36.6 181.7 36.7C181.5 36.9 181.2 37 180.9 37.1C180.6 37.2 180.3 37.3 179.9 37.3C179.5 37.3 179.2 37.4 178.8 37.4C178.5 37.4 178.1 37.4 177.9 37.4C177.6 37.4 177.4 37.4 177.3 37.4C176.2 37.4 175.2 37.3 174.3 37C173.4 36.8 172.7 36.4 172 35.9C171.4 35.4 170.9 34.7 170.6 33.9C170.5 32.9 170.3 32 170.3 30.9Z" fill="white"/>
<path d="M184.3 36.4C184.3 36.4 184.3 36.3 184.3 36.1C184.3 35.9 184.4 35.8 184.4 35.6C184.4 35.4 184.5 35.2 184.5 35.1C184.5 34.9 184.5 34.8 184.5 34.8C184.5 34.8 184.5 34.7 184.5 34.5C184.5 34.3 184.5 34.2 184.5 33.9C184.5 33.7 184.5 33.5 184.5 33.2C184.5 33 184.5 32.8 184.5 32.7C184.5 32.6 184.5 32.4 184.5 32.2C184.5 32 184.5 31.8 184.5 31.6C184.5 31.4 184.5 31.2 184.5 31.1C184.5 31 184.5 30.9 184.5 30.9C184.4 30 184.3 29.1 184.2 28.1C184 27.1 183.9 26.2 183.7 25.2C183.5 24.2 183.4 23.3 183.2 22.4C183 21.5 182.9 20.6 182.9 19.8C183.1 19.3 183.2 19.2 183.5 19.3C183.7 19.4 183.9 19.8 184.1 20.3C184.3 20.8 184.5 21.5 184.7 22.3C184.9 23.1 185.1 23.9 185.3 24.7C185.5 25.5 185.6 26.3 185.7 27C185.8 27.7 185.9 28.3 186 28.7C186 28.7 186.1 28.8 186.2 28.8C186.3 28.8 186.4 28.8 186.4 28.8C186.8 28.8 187.1 28.7 187.4 28.5C187.7 28.3 188 28 188.2 27.6C188.5 27.3 188.7 26.9 189 26.5C189.2 26.1 189.5 25.7 189.8 25.4C190.1 25.1 190.4 24.8 190.7 24.5C191 24.3 191.4 24.2 191.8 24.2C192.1 24.2 192.2 24.3 192.3 24.4C192.4 24.6 192.4 24.7 192.4 25C192.1 25.2 191.8 25.5 191.5 25.8C191.2 26.1 190.8 26.5 190.4 26.9C190 27.3 189.6 27.7 189.2 28.1C188.8 28.5 188.5 29 188.2 29.4C187.9 29.8 187.7 30.2 187.5 30.6C187.3 31 187.2 31.3 187.2 31.6C187.2 32 187.3 32.4 187.6 32.7C187.9 33 188.2 33.4 188.7 33.6C189.1 33.9 189.6 34.1 190.1 34.3C190.6 34.5 191.2 34.7 191.7 34.8C192.2 34.9 192.7 35.1 193.2 35.1C193.7 35.2 194 35.2 194.3 35.2C194.5 35.2 194.6 35.3 194.6 35.5C194.6 35.7 194.6 35.8 194.6 35.9C194.6 36.2 194.5 36.4 194.3 36.5C194.1 36.6 193.9 36.7 193.6 36.8C193.3 36.9 193.1 36.9 192.8 36.9C192.5 36.9 192.3 36.9 192.1 36.9C191.7 36.9 191.2 36.8 190.7 36.5C190.2 36.2 189.6 35.9 189.1 35.6C188.6 35.3 188.2 35 187.8 34.7C187.4 34.4 187.2 34.3 187 34.3C186.7 34.3 186.5 34.5 186.4 34.7C186.3 35 186.2 35.3 186.2 35.7C186.2 36 186.1 36.4 186 36.7C185.9 37 185.7 37.1 185.4 37.1C185.2 37.1 184.9 37 184.7 36.9C184.4 36.9 184.3 36.7 184.3 36.4Z" fill="white"/>
<path d="M195.2 31.4C195.2 30.4 195.4 29.4 195.9 28.7C196.4 27.9 197 27.3 197.7 26.7C198.4 26.2 199.3 25.8 200.2 25.5C201.1 25.2 202 25.1 203 25.1C203.5 25.1 204 25.2 204.4 25.4C204.8 25.6 205.2 25.8 205.6 26.1C206 26.4 206.3 26.8 206.6 27.2C206.9 27.6 207.2 28 207.4 28.5C207.6 28.9 207.8 29.4 207.9 29.8C208 30.3 208.1 30.7 208.1 31.1C208.1 32.1 207.9 32.9 207.5 33.7C207.1 34.5 206.6 35.1 206 35.6C205.4 36.1 204.6 36.5 203.8 36.8C203 37.1 202.2 37.2 201.3 37.2C200.4 37.2 199.6 37.1 198.9 36.8C198.2 36.5 197.5 36.1 197 35.7C196.5 35.2 196 34.6 195.7 33.9C195.3 33.1 195.2 32.3 195.2 31.4ZM196.6 31.2C196.6 31.8 196.7 32.4 196.9 32.9C197.1 33.4 197.4 33.9 197.8 34.3C198.2 34.7 198.7 35 199.2 35.3C199.7 35.5 200.3 35.6 200.9 35.6C201.2 35.6 201.6 35.6 202.1 35.4C202.6 35.3 203 35.1 203.5 34.8C204 34.5 204.4 34.2 204.8 33.8C205.2 33.4 205.6 33 205.9 32.5C206.2 32 206.4 31.5 206.4 31C206.5 30.5 206.4 30 206.1 29.5C205.9 29 205.4 28.5 204.8 28C204.2 27.5 203.3 27.1 202.2 26.7C201.6 26.7 200.9 26.8 200.3 27C199.6 27.2 199 27.5 198.5 27.8C197.9 28.2 197.5 28.6 197.1 29.2C196.7 29.9 196.6 30.5 196.6 31.2Z" fill="white"/>
<path d="M210.1 34.5C210.1 34.3 210.2 34.1 210.3 33.8C210.4 33.5 210.6 33.2 210.7 32.9C210.9 32.6 211 32.3 211.2 32.1C211.4 31.9 211.5 31.8 211.7 31.8C212.1 31.8 212.4 31.9 212.7 32.1C213 32.3 213.2 32.6 213.4 32.8C213.6 33.1 213.7 33.4 213.8 33.8C213.9 34.2 213.9 34.5 213.9 34.8C213.9 35 213.8 35.3 213.7 35.6C213.6 35.9 213.4 36.2 213.2 36.4C213 36.6 212.8 36.9 212.5 37C212.3 37.2 212 37.3 211.8 37.3C211.5 37.3 211.3 37.2 211.1 37C210.9 36.8 210.7 36.5 210.5 36.3C210.3 36 210.2 35.7 210.1 35.4C210.2 35 210.1 34.7 210.1 34.5Z" fill="white"/>
<path d="M215.3 30.9C215.3 30.1 215.5 29.3 215.8 28.5C216.1 27.7 216.6 27 217.1 26.4C217.7 25.8 218.3 25.3 219 24.9C219.7 24.5 220.5 24.4 221.4 24.4C221.8 24.4 222.2 24.4 222.6 24.5C223 24.6 223.4 24.7 223.8 24.9C224.2 25.1 224.5 25.3 224.7 25.6C224.9 25.9 225.1 26.3 225.1 26.8C225.1 26.9 225.1 27 225 27.3C224.9 27.5 224.9 27.8 224.8 28C224.7 28.2 224.6 28.4 224.5 28.6C224.4 28.8 224.3 28.9 224.2 28.9C224.2 28 224 27.3 223.5 26.7C223 26.1 222.3 25.8 221.3 25.8C220.6 25.8 219.9 26 219.4 26.3C218.8 26.6 218.4 27 218 27.5C217.6 28 217.3 28.5 217.1 29.2C216.9 29.8 216.8 30.4 216.8 31.1C216.8 32 216.9 32.7 217.2 33.3C217.5 33.9 217.9 34.3 218.4 34.7C218.9 35 219.5 35.3 220.1 35.5C220.7 35.7 221.4 35.8 222.1 35.8C222.8 35.9 223.5 35.9 224.3 35.9C225 35.9 225.7 35.8 226.4 35.8C226.5 35.8 226.6 35.8 226.7 35.9C226.8 36 226.9 36 227 36V36.1V36.2C227 36.4 226.9 36.6 226.7 36.7C226.5 36.9 226.2 37 225.9 37.1C225.6 37.2 225.3 37.3 224.9 37.3C224.5 37.3 224.2 37.4 223.8 37.4C223.5 37.4 223.1 37.4 222.9 37.4C222.6 37.4 222.4 37.4 222.3 37.4C221.2 37.4 220.2 37.3 219.3 37C218.4 36.8 217.7 36.4 217 35.9C216.4 35.4 215.9 34.7 215.6 33.9C215.5 32.9 215.3 32 215.3 30.9Z" fill="white"/>
<path d="M230.3 35.3C230.3 35 230.4 34.6 230.6 34.2C230.8 33.8 231.1 33.4 231.3 33C231.6 32.6 231.9 32.2 232.2 31.9C232.5 31.6 232.8 31.3 233 31L229.2 30.9C229.1 30.9 229.1 30.9 229 30.8C228.9 30.7 228.9 30.7 228.9 30.6C228.9 30.5 228.9 30.4 228.9 30.4V30.3C228.9 30.1 228.9 30 228.9 29.9C228.9 29.8 229 29.8 229 29.7C229.1 29.7 229.2 29.6 229.3 29.6C229.4 29.6 229.5 29.6 229.7 29.6C229.9 29.6 230.2 29.5 230.7 29.5C231.2 29.4 231.7 29.4 232.2 29.3C232.7 29.2 233.2 29.2 233.7 29.1C234.2 29 234.5 29 234.7 29C235 28.6 235.2 28.3 235.4 28C235.6 27.7 235.7 27.5 235.8 27.2C235.9 27 236 26.7 236 26.5C236.1 26.3 236.1 26 236.1 25.6C236.1 25.4 236.1 25.3 236.1 25.1C236.1 24.9 236 24.7 235.9 24.5C235.8 24.3 235.7 24.1 235.6 24C235.4 23.9 235.3 23.8 235 23.8H231.4C231.2 23.8 231 23.9 230.8 24C230.6 24.2 230.5 24.3 230.3 24.5C230.2 24.7 230 24.8 229.9 25C229.7 25.2 229.6 25.2 229.5 25.2C229.2 25.2 228.9 25.1 228.7 24.9C228.5 24.7 228.4 24.5 228.4 24.2C228.4 23.9 228.5 23.6 228.7 23.4C228.9 23.2 229.2 23 229.6 22.8C230 22.6 230.3 22.5 230.8 22.4C231.2 22.3 231.6 22.2 232 22.2C232.4 22.1 232.8 22.1 233.1 22.1C233.4 22.1 233.7 22.1 233.9 22.1C234.4 22.1 234.9 22.2 235.4 22.3C235.9 22.5 236.3 22.7 236.6 23C236.9 23.3 237.2 23.6 237.4 24.1C237.6 24.5 237.7 25 237.7 25.6C237.7 25.9 237.7 26.3 237.6 26.5C237.5 26.8 237.4 27.1 237.3 27.3C237.2 27.6 237.1 27.9 237 28.1C236.9 28.4 236.9 28.7 236.9 29C236.9 29 237 29 237.2 29C237.4 29 237.7 28.9 237.9 28.9C238.2 28.9 238.4 28.9 238.6 29C238.8 29.1 238.9 29.2 238.9 29.3V29.4V29.5C238.8 29.6 238.7 29.7 238.6 29.9C238.5 30.1 238.4 30.2 238.4 30.2L235.3 30.5C235.1 30.8 234.9 31.1 234.6 31.4C234.3 31.7 234 32 233.8 32.4C233.5 32.7 233.3 33.1 233 33.4C232.8 33.7 232.6 34 232.6 34.3C232.6 34.6 232.7 34.8 232.9 35C233.1 35.2 233.6 35.3 234.2 35.4C234.6 35.4 235.1 35.4 235.6 35.3C236.1 35.2 236.6 35.1 237.1 35C237.6 34.9 238.1 34.7 238.5 34.5C239 34.3 239.4 34.2 239.7 34C239.9 34.1 240 34.3 240.1 34.4C240.2 34.6 240.3 34.7 240.3 34.9C240.3 35.2 240.2 35.4 239.9 35.6C239.6 35.8 239.3 36 238.9 36.2C238.5 36.4 238 36.5 237.5 36.7C237 36.8 236.5 36.9 236 37C235.5 37.1 235 37.1 234.6 37.2C234.2 37.2 233.8 37.3 233.6 37.3C233.3 37.3 233 37.3 232.6 37.2C232.2 37.1 231.8 37 231.5 36.9C231.1 36.8 230.8 36.6 230.6 36.3C230.5 36 230.3 35.7 230.3 35.3Z" fill="white"/>
<path d="M23.7 52.6C23.4 52.6 23.1 52.5 22.8 52.5C18.5 52.2001 14.6 50.9001 11 48.5C7.50002 46.2001 4.90002 43.1 3.10002 39.3C2.20002 37.3 1.50002 35.3 1.20002 33.1C0.900018 31.7 0.800018 30.2 0.800018 28.8C0.900018 23.5 2.70002 18.8 6.20002 14.7C8.70002 11.8 11.7 9.70005 15.2 8.20005C17.2 7.30005 19.3 6.70005 21.4 6.40005C23.2 6.10005 25 6.00005 26.8 6.20005C27 6.20005 27.3 6.30005 27.5 6.30005C27.7 6.30005 27.9 6.50005 27.9 6.70005C27.9 6.90005 27.7 7.00005 27.5 7.00005C26.8 6.90005 26.1 6.90005 25.3 6.90005C22.5 6.90005 19.7 7.40005 17.1 8.40005C13.4 9.70005 10.2 11.7001 7.50002 14.6C4.60002 17.2001 2.80002 20.6 2.00002 24.5C1.60002 26.5 1.40002 28.4 1.60002 30.5C1.90002 34.7001 3.10002 38.6 5.50002 42.1C7.40002 45 10 47.3 13 49C15.3 50.3 17.8 51.2 20.5 51.6C22.3 51.9 24.1 52 26 51.9001C31.3 51.5 35.8 49.5 39.7 46C43 42.9001 45 39.1001 46 34.7001C46.4 32.9001 46.6 31 46.5 29.2001C46.4 27.6 46.1 26.1 45.7 24.5C45.3 22.9 44.7 21.4 44.1 19.9C43.9 19.3 43.5 18.8001 43.3 18.2001C43.2 17.9001 43.1 17.5001 43 17.2001C42.9 16.6 43.2 16.1 43.5 15.7C44 15 44.6 14.4001 45.2 13.8C46.2 12.8 47.3 11.9 48.3 10.9C48.7 10.5 49.1 10.1 49.4 9.60005C50.2 8.50005 50.4 7.20005 50 5.90005C49.7 4.70005 49 3.70005 47.9 2.90005C46.8 2.20005 45.6 2.00005 44.3 2.40005C43.1 2.70005 42.1 3.40005 41.2 4.20005C40.5 5.00005 39.7 5.80005 39 6.60005C38.6 7.00005 38.2 7.40005 37.8 7.80005C37.6 8.00005 37.4 8.00005 37.3 7.80005C37.2 7.70005 37.2 7.50005 37.3 7.30005C38.3 6.30005 39.2 5.30005 40.2 4.30005C41.1 3.40005 42.1 2.60005 43.3 2.10005C44.8 1.50005 46.2 1.30005 47.7 2.00005C49.2 2.70005 50.1 3.80005 50.6 5.30005C51.1 6.50005 51.1 7.70005 50.6 9.00005C50.3 9.70005 49.8 10.4 49.3 11C48.5 11.8 47.7 12.5 46.9 13.3C46.2 13.9001 45.6 14.5 45 15.1C44.6 15.5 44.3 15.9 44 16.4C43.7 16.8 43.7 17.3001 43.9 17.7001C44.1 18.2001 44.3 18.7001 44.5 19.2001C45.1 20.5 45.6 21.9001 46 23.2001C46.5 24.6 46.8 25.9 47 27.3C47.2 28.7 47.3 30.1 47.2 31.5C47 34.3 46.3 37 45.2 39.6C44 42.2 42.3 44.5 40.2 46.4001C38.1 48.4001 35.7 49.9001 33 51C31.3 51.7001 29.5 52.2001 27.7 52.4001C27 52.5 26.2 52.5 25.5 52.6C25.4 52.6 25.4 52.6 25.3 52.6C24.7 52.6 24.2 52.6 23.7 52.6Z" fill="white"/>
<path d="M25.2 52.9H23.7C23.6 52.9 23.4 52.9 23.2 52.9C23.1 52.9 22.9 52.9 22.8 52.9C18.4 52.6 14.4 51.2 10.9 48.8C7.40001 46.5 4.70001 43.3 2.90001 39.4C2.00001 37.4 1.30001 35.3 1.00001 33.2C0.700006 31.7 0.600006 30.2 0.600006 28.8C0.600006 23.4 2.50001 18.6 6.00001 14.5C8.40001 11.7 11.4 9.50002 15.1 7.90002C17.1 7.00002 19.3 6.40002 21.4 6.00002C23.3 5.70002 25.1 5.60002 26.8 5.80002C27 5.80002 27.3 5.90002 27.5 5.90002C27.8 6.00002 28.1 6.20002 28 6.50002C28 6.80002 27.7 7.10002 27.3 7.00002C27.1 7.00002 26.9 7.00002 26.7 7.00002C26.1 6.90002 25.5 6.90002 24.9 6.90002C22.3 6.90002 19.7 7.40002 17 8.30002C13.2 9.70002 10.1 11.7 7.50001 14.4C4.80001 17.3 3.00001 20.7 2.10001 24.4C1.70001 26.4 1.50001 28.3 1.70001 30.3C2.00001 34.6 3.30001 38.4 5.60001 41.8C7.50001 44.6 10 46.9 13 48.6C15.3 49.9 17.8 50.8 20.4 51.2C22.2 51.5 24 51.6 25.8 51.5C30.9 51.1 35.5 49.2 39.4 45.6C42.6 42.6 44.7 38.9 45.7 34.5C46.1 32.7 46.3 30.8 46.2 29.1C46.1 27.7 45.9 26.2 45.4 24.5C44.9 22.8 44.3 21.2 43.8 20C43.7 19.8 43.6 19.5 43.5 19.3C43.3 19 43.2 18.7 43.1 18.3C43 18 42.9 17.6 42.8 17.2C42.7 16.5 43 16 43.3 15.5C43.8 14.7 44.4 14.1 45.1 13.6L45.8 13C46.6 12.3 47.4 11.5 48.2 10.7C48.6 10.3 48.9 9.90002 49.3 9.40002C50.1 8.40002 50.3 7.20002 49.9 5.90002C49.6 4.70002 48.9 3.80002 47.9 3.10002C46.9 2.40002 45.8 2.30002 44.6 2.60002C43.5 2.90002 42.5 3.50002 41.6 4.30002C41 4.80002 40.4 5.40002 39.9 6.00002C39.7 6.20002 39.5 6.40002 39.3 6.60002L38.9 7.00002C38.6 7.30002 38.4 7.60002 38.1 7.80002C37.9 8.00002 37.5 8.10002 37.2 7.80002C37 7.60002 37 7.20002 37.2 7.00002C37.7 6.50002 38.2 6.00002 38.7 5.50002C39.2 5.00002 39.7 4.50002 40.2 4.00002C41.2 3.00002 42.2 2.30002 43.3 1.80002C45 1.10002 46.5 1.00002 47.9 1.70002C49.3 2.30002 50.4 3.50002 50.9 5.10002C51.4 6.40002 51.4 7.70002 50.9 8.90002C50.6 9.70002 50.1 10.4 49.5 11C48.9 11.6 48.2 12.3 47.6 12.8L46.8 13.5C46.3 14 45.7 14.5 45.2 15C44.9 15.4 44.6 15.8 44.3 16.2C44.1 16.5 44.1 16.9 44.2 17.3C44.3 17.5 44.4 17.8 44.5 18C44.6 18.2 44.7 18.5 44.8 18.7C45.4 20 45.9 21.3 46.3 22.7C46.7 24 47.1 25.4 47.3 26.9C47.5 28.3 47.6 29.7 47.5 31.2C47.3 34 46.6 36.8 45.4 39.3C44.2 41.9 42.5 44.2 40.4 46.2C38.2 48.2 35.8 49.8 33.1 50.8C31.2 51.5 29.5 52 27.7 52.2C27 52.3 26.2 52.3 25.5 52.4C25.4 52.8 25.4 52.8 25.2 52.9ZM23.7 52.4H25.2C25.2 52.4 25.3 52.4 25.4 52.4C26.1 52.4 26.9 52.3 27.6 52.2C29.3 52 31 51.5 32.8 50.8C35.4 49.8 37.8 48.2 40 46.3C42.1 44.4 43.8 42.1 44.9 39.5C46 37 46.7 34.3 46.9 31.5C47 30.1 46.9 28.7 46.7 27.3C46.5 25.9 46.1 24.5 45.7 23.2C45.2 21.8 44.8 20.5 44.2 19.2C44.1 19 44 18.7 43.9 18.5C43.8 18.3 43.7 18 43.6 17.8C43.4 17.2 43.4 16.7 43.7 16.2C44 15.7 44.3 15.3 44.7 14.9C45.2 14.4 45.8 13.9 46.3 13.4L47.1 12.7C47.7 12.1 48.4 11.5 49 10.9C49.5 10.4 50 9.70002 50.3 9.00002C50.8 7.90002 50.7 6.70002 50.3 5.50002C49.7 4.00002 48.8 3.00002 47.5 2.40002C46.2 1.80002 44.8 1.90002 43.3 2.50002C42.3 3.00002 41.3 3.70002 40.3 4.60002C39.8 5.10002 39.3 5.60002 38.8 6.10002C38.3 6.60002 37.8 7.10002 37.3 7.60002C37.2 7.70002 37.2 7.70002 37.3 7.80002C37.4 7.90002 37.4 7.80002 37.5 7.80002C37.8 7.50002 38.1 7.30002 38.3 7.00002L38.7 6.60002C39 6.20002 39.2 6.00002 39.4 5.80002C40 5.20002 40.5 4.60002 41.1 4.10002C42.1 3.20002 43.2 2.60002 44.3 2.30002C45.7 1.90002 47 2.10002 48.1 2.80002C49.2 3.50002 49.9 4.60002 50.3 5.90002C50.7 7.30002 50.5 8.70002 49.6 9.80002C49.2 10.3 48.9 10.7 48.5 11.1C47.7 11.9 46.9 12.6 46.1 13.4L45.4 14C44.8 14.6 44.2 15.1 43.7 15.8C43.4 16.3 43.2 16.7 43.3 17.2C43.4 17.6 43.4 17.9 43.6 18.2C43.7 18.5 43.9 18.8 44 19.1C44.1 19.4 44.2 19.6 44.4 19.9C44.9 21.1 45.5 22.8 46 24.5C46.5 26.2 46.7 27.7 46.8 29.2C46.9 31 46.7 32.9 46.3 34.8C45.3 39.3 43.1 43.1 39.8 46.2C35.9 49.8 31.2 51.8 25.9 52.2C24.1 52.3 22.2 52.2 20.4 51.9C17.7 51.4 15.1 50.5 12.8 49.2C9.70001 47.4 7.10001 45.1 5.20001 42.2C2.90001 38.8 1.60001 34.8 1.30001 30.5C1.10001 28.5 1.30001 26.5 1.70001 24.5C2.50001 20.6 4.40001 17.2 7.20001 14.2C9.90001 11.4 13 9.40002 16.9 8.00002C19.8 7.00002 22.5 6.50002 25.2 6.50002C25.7 6.50002 26.3 6.50002 26.8 6.60002C27 6.60002 27.2 6.60002 27.4 6.60002C27.6 6.60002 27.6 6.60002 27.6 6.50002C27.6 6.50002 27.6 6.40002 27.4 6.40002C27.2 6.40002 26.9 6.30002 26.7 6.30002C25 6.20002 23.3 6.20002 21.4 6.50002C19.3 6.80002 17.3 7.40002 15.3 8.30002C11.7 9.80002 8.70001 12 6.40001 14.8C3.00001 18.8 1.20001 23.5 1.10001 28.7C1.10001 30.1 1.20001 31.5 1.50001 33C1.90001 35.1 2.50001 37.2 3.40001 39.1C5.20001 42.9 7.80001 46 11.2 48.2C14.7 50.5 18.6 51.9 22.9 52.2C23 52.2 23.2 52.2 23.4 52.2C23.4 52.3 23.6 52.4 23.7 52.4Z" fill="white"/>
<path d="M22.2 33.5C22.3 33.5 22.4 33.5 22.5 33.5C23.7 33.4 24.9 33.4 26 33.7C27.1 34 28 34.5 28.7 35.4C28.8 35.5 28.9 35.6 28.9 35.7C29 35.9 29.1 36.2 28.9 36.4C28.7 36.6 28.5 36.7 28.2 36.7C27.4 36.6 26.6 36.5 25.8 36.3C24.1 35.9 22.5 35.2 20.8 34.6C20.7 34.6 20.6 34.5 20.5 34.6C18.8 35.9 17 37 15.1 37.9C14.9 38 14.7 38.1 14.6 38.2C14.4 38.3 14.2 38.3 14.1 38.1C14 37.9 14.1 37.7 14.3 37.6C15.6 36.9 16.9 36.2 18.2 35.5C18.5 35.3 18.8 35.1 19.1 34.9C19.2 34.8 19.2 34.8 19.2 34.6C19.2 33.7 19 32.8 18.8 31.9C18.6 31 18.4 30.2 18.3 29.3C18.2 28.3 18.2 27.2 18.6 26.3C18.8 25.7 19.3 25.6 19.8 26C20.3 26.4 20.6 26.9 20.8 27.4C21.3 28.5 21.6 29.7 21.6 30.9C21.6 31.7 21.5 32.5 21.1 33.2V33.3C21.3 33.1 21.4 33 21.6 32.8C22.2 32.2 22.7 31.5 23.3 30.9C23.4 30.8 23.5 30.6 23.6 30.4C23.6 30.4 23.6 30.3 23.6 30.2C23.3 28.8 22.9 27.4 22.7 26C22.5 24.9 22.4 23.8 22.3 22.7C22.2 22.1 22.4 21.5 22.7 21.1C23 21.1 23 21 23.1 21C23.5 20.6 24 20.7 24.3 21.1C24.5 21.4 24.7 21.8 24.9 22.1C25.3 23 25.5 24 25.6 24.9C25.7 25.4 25.7 25.9 25.7 26.5C25.8 26.4 25.8 26.3 25.8 26.2C26.3 24.9 26.8 23.6 27.5 22.4C27.9 21.6 28.4 20.9 29 20.3C29.3 20 29.6 19.8 30 19.6C30.3 19.5 30.4 19.6 30.5 19.8C30.8 20.5 30.7 21.2 30.4 21.8C30 22.8 29.4 23.7 28.7 24.5C28 25.4 27.2 26.1 26.3 26.8C26.2 26.9 26.2 26.9 26.2 27C26 27.8 25.7 28.5 25.3 29.3C25.3 29.3 25.3 29.3 25.3 29.4C25.5 29.3 25.7 29.1 25.9 29C27.3 28.1 28.9 27.5 30.6 27.4C31.3 27.4 32 27.4 32.6 27.4C32.8 27.4 32.9 27.5 32.9 27.6C33 27.8 32.9 27.9 32.8 28C32.2 28.7 31.4 29.2 30.6 29.5C29.2 30.1 27.8 30.5 26.3 30.7C25.7 31 25 31 24.4 31.1C24.3 31.1 24.3 31.1 24.2 31.2C23.6 32 22.9 32.7 22.2 33.5ZM19.5 26.4C19.4 26.4 19.4 26.4 19.5 26.4C19.3 26.7 19.2 27 19.2 27.3C19 28.3 19.1 29.4 19.3 30.4C19.5 31.3 19.7 32.3 19.9 33.2C20 33.4 20 33.7 20 34C20 34 20.1 34 20.1 33.9C20.2 33.9 20.2 33.8 20.2 33.8C20.8 33.2 21.1 32.4 21.1 31.6C21.2 30.8 21 30 20.8 29.2C20.6 28.5 20.4 27.7 19.9 27.1C19.8 26.8 19.6 26.6 19.5 26.4ZM24.3 29.6C24.4 29.6 24.4 29.6 24.3 29.6C24.4 29.5 24.5 29.3 24.6 29.2C24.7 28.7 24.8 28.2 24.9 27.6C25 26.5 25 25.5 24.8 24.4C24.6 23.4 24.3 22.5 23.8 21.6C23.7 21.5 23.7 21.4 23.6 21.3C23.3 21.5 23.1 21.9 23.1 22.2C23.1 22.8 23.1 23.4 23.2 24C23.4 25.3 23.7 26.6 23.9 27.9C24.1 28.5 24.2 29 24.3 29.6ZM21.6 34.2C23.8 35.1 26 35.9 28.4 36.1C28.2 35.9 28.1 35.7 28 35.6C27.2 34.7 26.2 34.4 25 34.2C24.1 34.1 23.3 34.1 22.4 34.1C22.2 34.1 21.9 34.2 21.6 34.2ZM31.8 28.1C29.4 28 27.2 28.7 25.3 30.3C26.9 30.1 28.5 29.7 30 29.2C30.7 28.9 31.3 28.6 31.8 28.1ZM26.8 25.5C26.8 25.5 26.8 25.6 26.8 25.5C26.9 25.5 26.9 25.5 26.9 25.5C27.6 24.9 28.2 24.2 28.8 23.4C29.3 22.8 29.7 22.1 29.9 21.4C30 21.1 30 20.8 30 20.4C29.8 20.6 29.5 20.8 29.4 21C28.8 21.7 28.3 22.5 27.9 23.4C27.4 24.1 27.1 24.8 26.8 25.5Z" fill="white"/>
<path d="M14.5 38.7C14.2 38.7 14 38.6 13.9 38.3C13.7 37.9 13.9 37.5 14.3 37.3C15.8 36.5 17.1 35.9 18.2 35.2C18.4 35.1 18.5 35 18.7 34.9C18.9 34.8 19 34.7 19.2 34.6C19.1 33.9 19 33.1 18.8 32.3L18.5 32C18.3 31.1 18.1 30.2 18 29.4C17.8 28.2 18 27.1 18.3 26.2C18.5 25.8 18.7 25.5 19.1 25.4C19.4 25.3 19.8 25.4 20.1 25.7C20.5 26.1 20.9 26.6 21.2 27.3C21.7 28.5 22 29.7 22.1 30.9C22.1 31.3 22.1 31.6 22 31.9C22.4 31.5 22.7 31.1 23.1 30.6C23.2 30.5 23.2 30.4 23.3 30.3C23.2 30 23.1 29.5 23 29.1C22.8 28.1 22.5 27.1 22.4 26.1C22.2 24.9 22.1 23.8 22 22.8C21.9 22 22.1 21.4 22.5 20.9L22.6 20.8L22.7 20.7C23 20.4 23.3 20.3 23.7 20.4C24 20.4 24.3 20.6 24.5 20.9C24.7 21.2 24.9 21.6 25.1 22C25.5 22.9 25.7 23.9 25.9 24.9C26.3 24 26.7 23.1 27.1 22.3C27.6 21.4 28.1 20.7 28.6 20.1C28.9 19.7 29.3 19.5 29.7 19.3C30.2 19.1 30.5 19.3 30.7 19.8C31 20.5 31 21.2 30.6 22.1C30.2 23.3 29.4 24.2 28.9 24.9C28.2 25.7 27.4 26.5 26.4 27.3C26.3 27.7 26.1 28.1 26 28.5C27.4 27.7 28.9 27.2 30.4 27.1C30.9 27.1 31.4 27.1 31.9 27.1H32.5C32.8 27.1 33.1 27.3 33.2 27.5C33.3 27.8 33.2 28.1 33 28.3C32.4 29 31.6 29.5 30.7 29.9C29.4 30.5 27.9 30.9 26.3 31.1C25.9 31.2 25.4 31.2 25 31.2C24.8 31.2 24.6 31.2 24.4 31.3C24 31.8 23.6 32.3 23 32.9C24 32.9 25 32.9 26.1 33.2C27.4 33.5 28.4 34.2 29 35.1C29.1 35.2 29.2 35.3 29.3 35.5C29.5 35.9 29.5 36.3 29.3 36.6C29.1 36.9 28.7 37.1 28.3 37H28.2C27.4 36.9 26.6 36.8 25.8 36.6C24.3 36.2 22.8 35.7 21.4 35.1L20.8 34.9C19.3 36.1 17.6 37.1 15.4 38.2L14.9 38.5C14.7 38.7 14.6 38.7 14.5 38.7ZM23.3 34.5C24.6 35 26 35.4 27.5 35.7C26.9 35.1 26.1 34.8 25 34.6C24.5 34.5 23.9 34.5 23.3 34.5ZM19.7 34.4C19.7 34.5 19.7 34.6 19.7 34.6C19.7 34.7 19.7 34.8 19.6 34.9C19.9 34.7 20.1 34.5 20.3 34.3C20.6 34.1 20.8 34.2 20.9 34.2L21.1 34.3V33.8L21.4 33.7H21.2L21.1 34L21 33.4V33.3C20.9 33.5 20.7 33.7 20.5 33.9C20.4 34 20.4 34 20.3 34.1L20.2 34.2L19.7 34.4ZM21.6 33.9V34.3V33.9ZM19.6 27.1C19.6 27.2 19.6 27.2 19.6 27.3C19.4 28.2 19.5 29.1 19.7 30.2C19.8 30.7 19.9 31.1 20 31.6C20.1 32.1 20.2 32.5 20.3 33C20.6 32.6 20.8 32 20.8 31.4C20.9 30.7 20.8 30 20.6 29.2C20.4 28.6 20.2 27.8 19.8 27.2C19.6 27.2 19.6 27.2 19.6 27.1ZM24.1 30C24.1 30.1 24.1 30.2 24.2 30.3L23.8 30.4H24.2C24.2 30.5 24.2 30.6 24.2 30.7L24.1 30.8C24.1 30.8 24.1 30.8 24.1 30.9L24.2 30.8L24.8 30.3L24.3 30.6L24.5 30.3L24.1 30ZM30.5 28.5C29.2 28.6 28 29 26.9 29.6C27.9 29.4 28.9 29.1 29.9 28.7C30.1 28.7 30.4 28.6 30.5 28.5ZM25.3 26.9C25.3 27.1 25.3 27.4 25.2 27.6C25.1 28.1 25 28.6 24.9 29.1C25.2 28.5 25.5 27.7 25.7 27L25.3 27.7V26.9ZM23.6 22C23.6 22.1 23.5 22.2 23.5 22.3C23.5 22.9 23.5 23.5 23.6 24C23.8 25.3 24 26.6 24.3 27.9L24.4 28.3C24.5 28.1 24.5 27.8 24.5 27.6C24.6 26.6 24.6 25.5 24.4 24.5C24.3 23.5 24 22.7 23.6 22ZM26.3 25.9C26.2 26.1 26.2 26.2 26.1 26.4C26.1 26.5 26 26.6 26 26.7V26.8C26 26.8 26 26.8 26.1 26.7C26.4 26.4 26.7 26.2 27 25.9H26.9H26.8H26.3ZM29.5 21.3C29 21.9 28.5 22.6 28.1 23.5C28 23.6 28 23.7 27.9 23.9C28.1 23.7 28.3 23.4 28.4 23.2C29 22.5 29.3 21.9 29.5 21.3Z" fill="white"/>
<path d="M42.8 30C42.8 33.6 41.8 36.9 39.7 39.9C38.2 42 36.4 43.6 34.2 45C32 46.3 29.7 47.3 27.2 47.8C25.4 48.1 23.5 48.3 21.7 48.1C19.9 47.9 18.2 47.5 16.6 46.8C16.4 46.7 16.3 46.6 16.4 46.4C16.5 46.2 16.7 46.1 16.9 46.2C17.7 46.5 18.5 46.8 19.4 47C21.1 47.5 22.8 47.6 24.6 47.5C28.5 47.3 32.1 46 35.2 43.7C37.5 42 39.3 39.9 40.6 37.4C41.2 36.1 41.7 34.7 41.9 33.2C42.2 31.8 42.2 30.3 42.1 28.9C41.8 25.5 40.7 22.3 38.8 19.4C37.2 17.1 35.2 15.2 32.7 13.8C30.9 12.8 29 12.1 27 11.8C23.3 11.3 19.7 11.9 16.3 13.5C14.1 14.6 12.1 16 10.5 17.9C10.2 18.3 9.80001 18.7 9.50001 19.1C9.40001 19.2 9.30001 19.3 9.10001 19.3C8.90001 19.2 8.80001 19 8.90001 18.7C9.20001 18.3 9.50001 17.9 9.90001 17.5C12.7 14.4 16.1 12.3 20.2 11.4C22 11 23.8 10.8 25.7 10.9C29.7 11.2 33.3 12.7 36.2 15.4C39.4 18.3 41.4 21.9 42.3 26C42.6 27.3 42.8 28.6 42.8 30Z" fill="white"/>
<path d="M23.5 48.3C22.9 48.3 22.3 48.3 21.6 48.2C19.7 48 18 47.6 16.4 46.8C16.1 46.7 15.9 46.4 16 46.1C16.1 45.9 16.1 45.8 16.3 45.7C16.5 45.6 16.7 45.6 16.9 45.7L17.3 45.8C18 46 18.7 46.3 19.4 46.5C21.1 46.9 22.8 47.1 24.5 47C28.3 46.8 31.8 45.5 35 43.2C37.4 41.5 39.1 39.4 40.3 37C40.9 35.7 41.4 34.3 41.6 32.9C41.9 31.5 41.9 30.1 41.8 28.7C41.5 25.3 40.4 22.2 38.5 19.3C36.9 17 34.9 15.1 32.5 13.7C30.8 12.7 28.9 12.1 26.9 11.8C23.3 11.3 19.8 11.9 16.3 13.5C14.1 14.6 12.2 16 10.6 17.8C10.3 18.1 10.1 18.4 9.80002 18.8L9.60002 19.1C9.50002 19.2 9.30001 19.4 9.00001 19.4C8.80001 19.4 8.60002 19.2 8.60002 19C8.50002 18.8 8.60001 18.6 8.70001 18.4C9.00001 18 9.30001 17.5 9.70001 17.1C12.4 14.1 16 12 20.1 11C21.9 10.6 23.8 10.4 25.7 10.5C29.8 10.8 33.4 12.3 36.4 15.1C39.5 17.9 41.6 21.6 42.6 25.9C42.9 27.3 43.1 28.6 43.1 30C43.1 33.8 42 37.2 39.9 40C38.4 42.1 36.6 43.7 34.3 45.1C32.1 46.4 29.7 47.4 27.2 47.9C26 48.2 24.8 48.3 23.5 48.3ZM16.6 46.2C16.5 46.3 16.5 46.3 16.6 46.4C18.2 47.1 19.9 47.5 21.7 47.7C23.5 47.9 25.3 47.8 27.1 47.4C29.5 46.9 31.9 46 34 44.7C36.2 43.3 38 41.7 39.4 39.7C41.4 36.9 42.4 33.6 42.5 30C42.5 28.6 42.3 27.3 42 26C41.1 21.8 39 18.3 36 15.5C33.1 12.8 29.6 11.3 25.6 11C23.8 10.9 21.9 11 20.2 11.5C16.2 12.5 12.7 14.5 10 17.6C9.70001 18 9.40001 18.4 9.00001 18.8V18.9C9.00001 18.9 9.00002 18.9 9.10002 18.9C9.10002 18.9 9.10001 18.9 9.20001 18.8L9.40001 18.5C9.70001 18.2 9.90001 17.8 10.2 17.5C11.9 15.6 13.8 14.1 16.1 13.1C19.6 11.4 23.3 10.8 27 11.3C29 11.6 31 12.3 32.8 13.3C35.3 14.7 37.3 16.6 38.9 19C40.9 21.9 42 25.1 42.3 28.6C42.4 30.1 42.4 31.5 42.1 33C41.8 34.5 41.4 35.9 40.7 37.3C39.5 39.8 37.7 42 35.3 43.7C32 46.1 28.4 47.4 24.5 47.6C22.7 47.7 21 47.5 19.2 47.1C18.5 46.9 17.8 46.6 17.1 46.4L16.7 46.3C16.7 46.2 16.7 46.2 16.6 46.2Z" fill="white"/>
<path d="M5.70001 31.2C5.70001 30.9 5.80001 30.7 6.00001 30.7C6.20001 30.7 6.30001 30.8 6.40001 31C6.60001 31.9 6.70001 32.7 6.90001 33.6C7.70001 36.8 9.20001 39.6 11.4 42C11.5 42.1 11.5 42.1 11.6 42.2C11.7 42.4 11.7 42.5 11.6 42.7C11.5 42.8 11.3 42.8 11.1 42.7C10.8 42.4 10.5 42 10.2 41.7C8.00001 39 6.60001 36 6.00001 32.6C5.90001 32.3 5.90001 32.1 5.90001 31.8C5.70001 31.6 5.70001 31.4 5.70001 31.2Z" fill="white"/>
<path d="M11.3 43.1C11.1 43.1 11 43 10.9 42.9C10.6 42.5 10.3 42.2 10 41.8C7.8 39.1 6.4 36 5.7 32.6C5.6 32.3 5.6 32.1 5.6 31.8C5.5 31.6 5.5 31.4 5.5 31.2V31.1C5.5 30.5 5.8 30.4 6 30.4C6.2 30.4 6.3 30.4 6.4 30.5C6.5 30.6 6.6 30.7 6.6 30.9C6.6 31.2 6.7 31.4 6.7 31.7C6.8 32.3 6.9 32.9 7.1 33.5C7.9 36.7 9.4 39.5 11.6 41.8C11.7 41.9 11.7 41.9 11.8 42C12 42.3 12 42.6 11.7 42.8C11.6 43 11.5 43.1 11.3 43.1ZM6 31.2C6 31.4 6 31.6 6.1 31.8C6.1 32.1 6.2 32.3 6.2 32.6C6.8 36 8.2 39 10.4 41.6C10.7 41.9 11 42.3 11.3 42.6H11.4V42.5C11.4 42.4 11.3 42.4 11.2 42.3C9 39.9 7.4 37 6.6 33.8C6.4 33.2 6.3 32.6 6.2 32C6.2 31.7 6.1 31.5 6.1 31.2C6.1 31.1 6.1 31.1 6.1 31.1C6 31 5.9 31 6 31.2Z" fill="white"/>
<path d="M174.7 18.3C174.3 18.3 173.9 18.4 173.6 18.7C173.3 19 172.9 19.3 172.6 19.7C172.2 20.1 171.9 20.4 171.4 20.7C171 21 170.5 21.1 170 21.1C169.3 21.1 168.5 21.1 167.9 20.8C167.3 20.5 167 20.4 166.3 19.7C165.8 19.2 165.5 18.8 164 17.4C163.8 17.3 163.5 17.1 163.4 17C162.8 16.7 162.2 16.6 161.7 16.6C160.8 16.6 160 16.8 159.4 17.2C158.8 17.6 158.3 18.1 157.9 18.8C157.5 19.4 157.2 20.2 157 21C156.8 21.8 156.6 22.6 156.5 23.5C156.4 24.3 156.4 25.1 156.4 25.9C156.4 26.7 156.5 27.4 156.5 27.9C156.3 27.9 156 27.9 155.6 28C155.3 28 154.9 28.1 154.6 28.2C154.3 28.3 154 28.4 153.8 28.6C153.6 28.8 153.5 29 153.5 29.3C153.5 29.5 153.5 29.6 153.6 29.7C153.7 29.8 153.8 29.9 153.9 29.9H154C154.1 29.9 154.3 29.9 154.6 29.8C154.9 29.7 155.1 29.7 155.4 29.6C155.7 29.5 156 29.5 156.2 29.4C156.5 29.3 156.6 29.3 156.7 29.3L157 29.6C157.1 29.8 157.2 30 157.3 30.3C157.4 30.6 157.6 30.9 157.8 31.3C158 31.7 158.2 32.1 158.4 32.5C158.6 32.9 158.8 33.3 159 33.7C159.2 34.1 159.3 34.4 159.5 34.7C159.6 35 159.8 35.2 159.8 35.4C159.9 35.6 160 35.7 160.1 36C160.3 36.2 160.4 36.5 160.6 36.7C160.8 36.9 161 37.1 161.2 37.2C161.4 37.3 161.6 37.4 161.8 37.4C162 37.4 162.2 37.4 162.3 37.3C162.5 37.2 162.5 37.1 162.5 36.8C162.5 36.3 162.3 35.7 162 35.2C161.7 34.7 161.3 34.1 160.9 33.6C160.5 33 160.1 32.4 159.8 31.8C159.5 31.2 159.3 30.5 159.3 29.8C160 30 160.7 30 161.3 30C161.9 30 162.4 30 162.9 29.9C163.3 29.8 163.6 29.7 163.8 29.5C164 29.3 164 29.1 163.8 28.9C163.9 28.5 163.7 28.3 163.3 28.3C162.3 28.2 161.6 28.2 161 28.1C160.4 28 159.9 28 159.5 27.9C159.1 27.8 158.9 27.8 158.7 27.8C158.5 27.8 158.4 27.7 158.4 27.7L157.9 23.6V23.3C157.9 22.7 158 22.1 158.2 21.5C158.4 20.9 158.7 20.4 159.1 19.9C159.5 19.4 159.9 19.1 160.5 18.8C161 18.5 161.6 18.4 162.3 18.4C162.8 18.4 163.2 18.5 163.5 18.8C163.9 19.1 164.2 19.4 164.5 19.8C164.8 20.1 165.1 20.5 165.4 20.8C165.4 20.8 165.7 21.1 165.8 21.1C166.4 21.8 166.6 21.9 167.3 22.3C168 22.7 168.7 22.9 169.8 22.9C170.4 22.9 171 22.8 171.7 22.5C172.4 22.2 173 21.9 173.6 21.5C174.2 21.1 174.7 20.6 175.1 20C175.5 19.5 175.7 18.9 175.7 18.4L174.7 18.3Z" fill="white"/>
</svg>
